<svg preserveAspectRatio="xMidYMid meet" version="1.0" viewBox="0 0 8131 6098" xmlns="http://www.w3.org/2000/svg">
 <metadata>
  Created by 燕雀智造
 </metadata>
 <g stroke="none" transform="translate(0.000000,6098.000000) scale(0.100000,-0.100000)">
  <path d="M39939 36727 c-48 -32 -82 -85 -74 -117 17 -69 94 -135 156 -134 36 1 90 31 116 64 39 48 11 153 -49 190 -45 27 -106 26 -149 -3z" fill="#fcf8c9"/>
  <path d="M39215 36513 c-130 -53 -238 -182 -239 -284 0 -113 176 -279 297 -279 53 0 99 24 169 88 64 59 100 114 117 177 l11 39 -25 53 c-33 73 -115 156 -188 193 -68 34 -86 36 -142 13z" fill="#fcf8c9"/>
  <path d="M38833 35761 c-40 -25 -53 -49 -53 -98 1 -117 169 -141 225 -33 48 92 -79 189 -172 131z" fill="#fcf8c9"/>
  <path d="M39050 35263 c-78 -29 -80 -130 -3 -172 50 -26 124 -2 141 47 24 71 -65 152 -138 125z" fill="#fcf8c9"/>
  <path d="M38941 34956 c-56 -31 -67 -107 -23 -149 74 -71 182 -26 182 76 0 30 -37 65 -81 77 -43 13 -49 12 -78 -4z" fill="#fcf8c9"/>
  <path d="M27295 34514 c-187 -35 -330 -152 -395 -322 -40 -106 -43 -197 -30 -1152 6 -498 15 -1021 18 -1163 4 -141 4 -257 -1 -257 -4 0 -52 35 -106 79 -474 377 -837 521 -1317 521 -462 0 -875 -143 -1268 -439 -409 -308 -755 -820 -916 -1352 -101 -337 -144 -658 -144 -1089 l-1 -285 23 -200 c72 -616 207 -1035 455 -1414 216 -327 547 -610 884 -755 395 -169 889 -212 1267 -111 340 92 718 311 1065 620 61 55 116 102 122 103 5 2 9 -7 9 -21 0 -43 37 -209 63 -279 36 -101 84 -172 166 -250 93 -88 175 -129 277 -136 218 -14 443 162 496 390 10 42 13 784 13 3573 l0 3520 -28 80 c-50 141 -115 219 -236 284 -119 63 -269 83 -416 55z m-1433 -3259 c124 -17 292 -61 405 -106 264 -104 491 -266 553 -394 l24 -50 7 -395 c11 -607 10 -1880 -1 -2003 -6 -59 -19 -131 -30 -160 -55 -144 -255 -334 -504 -476 -288 -164 -627 -228 -909 -170 -265 53 -436 140 -610 308 -165 159 -283 362 -373 641 -134 415 -161 1040 -65 1507 83 402 222 681 465 931 298 306 627 423 1038 367z" fill="#fcf8c9"/>
  <path d="M66579 34510 c-148 -31 -253 -98 -328 -212 -64 -95 -82 -167 -89 -348 -5 -159 13 -1871 24 -2174 l6 -169 -34 27 c-411 332 -684 480 -1003 546 -381 78 -779 43 -1145 -102 -511 -202 -949 -619 -1248 -1188 -222 -423 -331 -936 -333 -1566 -1 -212 0 -233 32 -514 105 -940 451 -1581 1072 -1985 350 -227 859 -343 1295 -294 412 46 857 275 1306 671 61 54 113 98 116 98 3 0 11 -39 18 -87 25 -186 82 -325 176 -429 139 -154 305 -207 473 -150 118 40 198 100 265 199 61 90 78 149 89 316 6 93 9 1383 7 3531 l-3 3385 -22 78 c-13 43 -35 102 -50 130 -62 113 -185 201 -333 237 -103 24 -177 24 -291 0z m-1356 -3265 c319 -58 629 -204 803 -379 88 -88 103 -116 114 -219 5 -45 11 -590 12 -1212 l3 -1130 -17 -78 c-25 -115 -59 -168 -188 -298 -211 -212 -469 -355 -760 -420 l-105 -24 -165 0 -165 0 -93 23 c-263 65 -427 155 -598 328 -299 305 -465 843 -464 1509 0 636 155 1134 464 1487 215 246 464 386 771 432 59 9 302 -3 388 -19z" fill="#fcf8c9"/>
  <path d="M30113 34444 c-157 -26 -290 -99 -399 -218 -139 -153 -209 -383 -175 -582 17 -98 87 -236 162 -317 149 -163 328 -241 549 -241 328 1 602 216 681 534 l22 85 -7 88 c-10 144 -41 248 -102 345 -99 156 -271 271 -460 308 -91 17 -162 17 -271 -2z" fill="#fcf8c9"/>
  <path d="M60402 34444 c-243 -41 -455 -216 -533 -441 -71 -204 -64 -351 24 -533 l41 -85 86 -85 c145 -145 309 -213 515 -214 280 0 515 144 636 390 81 167 89 343 24 534 -75 221 -276 389 -523 436 -89 17 -160 16 -270 -2z" fill="#fcf8c9"/>
  <path d="M44698 34171 c-130 -42 -254 -155 -294 -266 l-18 -50 -1 -2559 -2 -2558 42 -57 c47 -63 104 -113 191 -165 83 -51 140 -67 197 -54 60 12 211 90 417 215 856 518 1842 1112 2560 1543 1117 670 1231 742 1323 839 96 100 125 201 93 317 -42 146 -147 234 -621 519 -161 97 -289 176 -890 547 -93 58 -242 149 -330 203 -194 118 -502 309 -1015 629 -212 132 -452 281 -535 331 -82 51 -276 171 -430 266 -509 318 -562 341 -687 300z" fill="#fcf8c9"/>
  <path d="M56800 33631 c-170 -46 -298 -171 -353 -346 -39 -122 -50 -215 -78 -605 -11 -162 -27 -347 -35 -410 -7 -63 -14 -119 -14 -125 -1 -35 -18 -39 -197 -46 -207 -8 -320 -31 -425 -86 -87 -46 -177 -136 -219 -221 l-33 -67 -4 -78 -4 -77 36 -76 c46 -96 133 -189 219 -233 91 -46 178 -61 383 -68 l181 -6 6 -786 c4 -432 7 -1094 7 -1471 0 -380 5 -738 10 -805 48 -561 245 -1003 577 -1297 242 -213 513 -297 873 -268 416 33 793 111 936 195 83 48 161 131 201 213 l37 74 -17 82 c-42 203 -187 362 -377 411 -70 18 -168 17 -385 -5 -232 -23 -380 23 -511 162 -106 113 -169 266 -201 491 l-18 122 0 1432 c0 787 4 1435 8 1440 5 4 214 11 465 15 257 3 484 11 518 17 131 23 202 61 287 150 140 146 164 324 71 511 -59 116 -165 191 -325 227 l-74 17 -465 1 c-256 0 -471 4 -477 8 -10 6 -13 121 -13 516 l0 508 -15 89 c-35 200 -151 338 -329 393 -82 25 -158 26 -246 2z" fill="#fcf8c9"/>
  <path d="M11195 32205 c-457 -74 -767 -244 -1288 -709 -108 -97 -200 -176 -203 -176 -4 0 -4 21 0 48 14 109 -30 331 -91 460 -73 156 -251 286 -410 299 -218 18 -431 -141 -485 -363 -17 -69 -24 -4621 -8 -4709 22 -115 108 -239 216 -310 114 -76 313 -113 456 -86 208 40 385 203 430 396 8 36 13 502 17 1715 l6 1665 16 42 c30 77 70 134 167 234 227 237 507 416 757 486 l100 28 150 -1 150 -1 95 -22 c228 -55 402 -194 508 -406 66 -131 115 -359 143 -660 8 -91 14 -576 18 -1620 l6 -1490 34 -69 c20 -40 60 -96 99 -138 115 -122 268 -177 462 -166 259 15 472 194 509 428 7 43 11 595 11 1645 0 936 4 1614 10 1663 12 105 37 152 145 274 227 257 544 465 821 539 l89 24 150 -1 c219 -1 352 -37 492 -132 236 -161 348 -437 384 -947 7 -99 14 -724 18 -1630 l7 -1470 21 -52 c58 -144 181 -259 333 -313 90 -31 259 -39 350 -16 167 42 300 143 373 283 l38 73 10 89 c15 132 6 3309 -9 3421 -80 577 -243 982 -504 1256 -153 160 -312 262 -521 336 -361 128 -766 130 -1147 7 -302 -99 -671 -356 -1060 -739 -113 -111 -157 -149 -163 -139 -4 8 -43 78 -85 155 -259 470 -556 696 -1032 785 -150 28 -452 35 -585 14z" fill="#fcf8c9"/>
  <path d="M19825 32214 c-401 -59 -665 -149 -960 -327 -198 -120 -337 -230 -500 -398 -399 -411 -647 -900 -744 -1464 -35 -203 -40 -256 -51 -500 -15 -328 -1 -549 55 -865 170 -955 821 -1714 1727 -2011 270 -89 499 -123 828 -123 254 0 348 9 585 55 321 62 791 233 1001 364 91 57 184 155 184 194 0 121 -147 386 -304 548 l-83 86 -191 -92 c-395 -188 -744 -271 -1087 -258 -292 12 -593 96 -814 229 -341 204 -576 502 -704 893 -51 153 -118 477 -103 493 4 4 710 9 1569 12 l1562 6 80 18 c147 34 247 101 294 198 36 76 46 142 62 422 20 340 -10 577 -113 911 -173 563 -439 965 -818 1242 -92 67 -259 160 -375 208 -141 59 -283 99 -470 131 l-150 26 -225 3 c-124 2 -238 1 -255 -1z m411 -909 c512 -76 841 -404 960 -955 38 -172 59 -358 55 -468 l-1 -32 -1289 2 c-709 2 -1292 6 -1296 10 -16 16 57 345 113 508 74 216 174 373 347 545 321 321 694 451 1111 390z" fill="#fcf8c9"/>
  <path d="M34330 32214 c-483 -57 -778 -137 -1234 -336 -294 -127 -453 -218 -546 -308 -82 -79 -88 -121 -37 -247 42 -102 118 -224 206 -328 75 -90 175 -175 205 -175 10 0 82 34 158 76 338 184 665 310 948 366 l115 22 200 0 200 0 105 -23 c195 -42 327 -111 447 -233 84 -85 127 -146 179 -253 96 -201 175 -583 129 -628 -19 -19 -115 -41 -270 -62 -651 -87 -1154 -199 -1570 -347 -424 -151 -784 -372 -992 -608 -233 -264 -351 -547 -384 -918 -14 -165 -2 -326 42 -523 35 -162 61 -236 131 -373 133 -258 367 -485 638 -620 240 -120 419 -163 710 -173 547 -18 1029 176 1690 682 68 52 127 91 130 87 4 -4 14 -63 24 -131 28 -204 101 -350 224 -447 130 -102 330 -112 507 -25 117 58 222 199 244 331 12 70 21 2515 11 2955 -9 363 -26 521 -81 753 -153 645 -443 1058 -904 1289 -170 86 -306 128 -540 169 l-150 27 -250 2 c-137 2 -266 1 -285 -1z m1083 -3336 c6 -567 -1 -735 -32 -796 -82 -160 -521 -469 -813 -571 -127 -44 -329 -81 -444 -81 -88 0 -241 23 -334 51 -327 98 -495 313 -517 660 -14 232 75 440 271 634 227 225 566 376 1088 486 124 26 419 76 668 113 52 7 98 14 101 15 3 0 8 -230 12 -511z" fill="#fcf8c9"/>
  <path d="M69004 32160 c-78 -16 -191 -59 -253 -95 -96 -57 -195 -155 -233 -233 l-33 -67 1 -105 0 -105 28 -85 c16 -47 46 -132 68 -190 45 -119 639 -1611 668 -1680 11 -25 120 -299 244 -610 287 -723 498 -1256 691 -1740 188 -472 208 -532 199 -573 -10 -50 -189 -555 -223 -630 -66 -147 -175 -290 -353 -464 -131 -127 -241 -204 -335 -233 -80 -25 -113 -25 -334 -3 l-176 17 -49 -19 c-64 -24 -163 -124 -205 -207 -65 -128 -129 -370 -129 -481 1 -86 45 -144 136 -180 152 -59 608 -82 899 -46 230 29 541 185 806 405 319 265 630 755 859 1354 68 177 333 933 420 1200 10 30 45 134 78 230 34 96 85 247 115 335 31 88 97 279 147 425 51 146 100 290 110 320 10 30 59 174 110 320 51 146 100 290 110 320 10 30 59 174 110 320 51 146 100 290 110 320 10 30 59 174 110 320 51 146 100 290 110 320 10 30 60 179 113 330 208 604 211 615 210 725 -1 175 -98 308 -295 407 -222 111 -393 87 -545 -76 -107 -115 -170 -257 -277 -631 -35 -119 -83 -282 -111 -375 -12 -41 -37 -124 -55 -185 -18 -60 -42 -144 -55 -185 -13 -41 -51 -169 -85 -285 -34 -115 -72 -244 -85 -285 -13 -41 -38 -124 -55 -185 -17 -60 -42 -144 -55 -185 -13 -41 -51 -169 -85 -285 -34 -115 -70 -237 -80 -270 -10 -33 -35 -116 -55 -185 -21 -69 -57 -188 -80 -265 -24 -77 -62 -205 -85 -285 -84 -292 -192 -630 -201 -630 -14 0 -75 158 -202 520 -80 228 -363 1047 -402 1165 -13 39 -62 183 -110 320 -48 138 -113 327 -145 420 -32 94 -106 310 -165 480 -59 171 -155 452 -215 625 -133 388 -160 461 -201 542 -73 145 -154 231 -278 293 -60 30 -139 40 -207 25z" fill="#fcf8c9"/>
  <path d="M30096 32079 c-108 -26 -189 -72 -266 -149 -81 -81 -118 -152 -137 -267 l-15 -88 -4 -830 c-3 -456 -1 -1478 3 -2271 l8 -1440 39 -79 c96 -194 283 -304 518 -305 105 0 168 15 268 62 109 52 192 134 244 240 l37 73 10 125 c6 79 9 938 7 2320 l-3 2195 -18 55 c-65 191 -194 309 -395 361 -94 24 -193 23 -296 -2z" fill="#fcf8c9"/>
  <path d="M60386 32079 c-106 -26 -189 -72 -263 -146 -66 -66 -100 -123 -130 -218 l-18 -60 0 -2311 0 -2310 38 -77 c74 -149 213 -258 374 -292 275 -59 545 59 657 285 l36 75 11 115 c6 75 9 872 7 2315 l-4 2200 -15 55 c-38 137 -128 251 -249 314 -140 74 -291 93 -444 55z" fill="#fcf8c9"/>
  <path d="M53545 27534 c-63 -32 -95 -79 -95 -138 0 -67 77 -126 164 -126 l45 0 41 38 40 39 0 49 c0 112 -104 186 -195 138z" fill="#fcf8c9"/>
  <path d="M39343 26770 c-71 -43 -81 -115 -23 -164 56 -46 127 -40 179 15 41 45 18 120 -49 154 -39 20 -69 19 -107 -5z" fill="#fcf8c9"/>
  <path d="M53399 26736 c-41 -18 -59 -37 -59 -61 0 -30 44 -65 80 -65 52 0 103 89 68 117 -22 17 -62 21 -89 9z" fill="#fcf8c9"/>
  <path d="M53149 26483 c-17 -15 -38 -42 -46 -61 l-14 -34 18 -30 c30 -52 86 -90 132 -92 l41 -1 35 36 c22 22 38 48 41 70 l6 36 -33 38 c-60 68 -127 82 -180 38z" fill="#fcf8c9"/>
  <path d="M39611 26395 c-38 -33 -45 -56 -31 -100 17 -52 62 -85 117 -85 l45 0 29 29 c34 35 37 72 9 118 -39 64 -117 81 -169 38z" fill="#fcf8c9"/>
  <path d="M52859 26171 c-36 -36 -37 -73 -4 -106 33 -34 92 -34 129 0 30 28 32 44 11 85 -30 58 -90 67 -136 21z" fill="#fcf8c9"/>
  <path d="M52212 26093 c-49 -24 -86 -76 -78 -109 16 -61 97 -106 162 -90 41 11 84 59 84 96 0 46 -27 90 -65 106 -44 18 -62 17 -103 -3z" fill="#fcf8c9"/>
  <path d="M40874 25986 c-44 -44 -46 -86 -5 -127 55 -54 150 -30 169 44 13 47 -4 86 -44 103 -53 22 -82 18 -120 -20z" fill="#fcf8c9"/>
  <path d="M41532 25844 c-50 -35 -9 -97 61 -92 l42 3 9 27 c7 18 6 35 -2 53 l-12 25 -38 0 c-20 0 -48 -7 -60 -16z" fill="#fcf8c9"/>
  <path d="M41903 25849 c-29 -15 -56 -74 -49 -106 9 -33 60 -53 135 -53 85 0 108 11 121 59 12 45 1 85 -27 95 -33 13 -157 16 -180 5z" fill="#fcf8c9"/>
  <path d="M44615 36493 c-841 -11 -2823 -113 -2776 -143 6 -3 -10 -27 -39 -55 -29 -29 -45 -52 -39 -56 6 -3 -12 -20 -40 -38 -27 -18 -55 -38 -61 -46 l-11 -13 22 5 c15 4 20 3 15 -5 -4 -7 -16 -12 -27 -12 -23 0 -24 -8 -2 -118 17 -89 28 -89 33 -2 l2 35 8 -30 c4 -16 8 -73 8 -125 l1 -95 -15 39 c-8 22 -17 42 -20 45 -10 9 3 -271 14 -299 l9 -24 7 48 c4 27 11 44 15 40 5 -5 18 -94 31 -199 12 -104 23 -191 25 -193 1 -1 6 29 9 69 4 39 9 69 11 67 6 -6 35 -356 35 -426 0 -38 3 -98 7 -133 l7 -64 12 60 11 60 3 -115 c4 -183 16 -364 20 -300 l3 55 7 -80 c4 -44 10 -224 13 -400 l6 -320 -13 35 -13 35 -7 -105 c-4 -58 -9 -130 -12 -160 l-6 -55 16 20 16 20 -6 -70 c-14 -166 -34 -348 -39 -353 -3 -3 -6 15 -6 39 -1 30 -6 13 -15 -56 -8 -55 -30 -210 -50 -345 -19 -135 -46 -333 -60 -440 -41 -316 -80 -452 -205 -702 -72 -146 -278 -438 -397 -562 -85 -90 -138 -151 -117 -137 34 23 -286 -288 -355 -345 -36 -29 -90 -74 -120 -99 -78 -65 -256 -191 -383 -269 -125 -78 -240 -134 -348 -170 -42 -13 -94 -33 -115 -44 -22 -11 -73 -30 -114 -41 -124 -37 -140 -42 -137 -50 1 -4 -12 -21 -29 -37 -17 -16 -35 -36 -40 -44 -19 -31 -112 -101 -117 -88 -9 22 -7 -44 8 -330 59 -1080 132 -1480 341 -1893 280 -550 782 -993 1366 -1203 407 -147 680 -186 1738 -251 560 -34 1141 -59 1600 -70 140 -3 310 -8 378 -11 l124 -6 -15 28 c-24 46 -78 90 -142 117 -237 99 -568 345 -763 567 -41 47 -104 130 -140 185 -36 55 -76 116 -89 136 -30 46 -121 257 -162 375 -70 207 -125 541 -142 873 -11 219 -7 439 10 527 5 27 17 96 26 153 24 152 76 355 134 521 27 80 79 229 114 331 69 199 94 325 82 407 l-7 47 -16 -30 -16 -30 -8 70 c-13 120 -38 505 -38 583 0 86 16 154 66 284 20 51 72 192 115 312 43 121 82 222 87 225 4 3 30 59 56 124 27 65 57 128 66 140 10 12 32 51 50 87 46 91 99 170 116 170 7 0 23 13 35 30 12 16 26 27 31 24 4 -3 8 0 8 5 0 6 7 11 15 11 8 0 15 -5 15 -11 0 -7 11 -9 29 -6 15 3 33 1 40 -6 6 -6 12 -9 13 -7 1 3 4 383 8 845 l6 840 18 55 c25 75 133 183 231 231 l70 34 75 0 75 -1 90 -45 c50 -25 191 -109 315 -186 124 -77 360 -223 525 -325 165 -102 491 -304 725 -450 234 -145 556 -345 715 -443 160 -98 468 -288 685 -423 450 -279 510 -316 710 -437 325 -197 432 -270 498 -343 19 -20 31 -32 28 -26 -10 20 79 37 158 31 87 -8 281 -47 392 -81 327 -98 498 -202 1189 -720 360 -270 486 -355 630 -426 323 -160 671 -222 1413 -250 276 -11 267 -10 400 -48 62 -18 92 -31 93 -42 7 -73 19 210 29 670 13 588 2 1661 -18 1696 -5 9 -22 18 -38 20 -29 3 -66 19 -94 39 -8 6 -40 17 -70 24 -148 36 -415 113 -418 121 -2 5 -10 6 -19 3 -10 -4 -14 -2 -10 4 3 5 -19 20 -51 33 -107 43 -457 226 -547 286 -49 33 -194 130 -322 216 -537 362 -862 462 -1545 475 -290 6 -440 -5 -588 -44 -52 -13 -104 -26 -115 -28 -50 -11 -264 -102 -413 -175 -90 -44 -173 -82 -185 -85 -12 -3 -67 -20 -122 -39 -172 -59 -272 -65 -530 -30 -360 50 -733 166 -1060 332 -293 149 -491 299 -775 589 -167 170 -261 288 -381 478 -145 229 -438 789 -519 990 -24 61 -50 121 -56 134 -7 14 -27 77 -45 142 -18 65 -36 116 -41 113 -4 -3 -8 1 -8 8 0 7 -16 82 -36 166 l-36 153 -19 -6 c-24 -8 -37 20 -21 46 l12 18 -30 18 c-17 9 -30 21 -30 25 0 4 -16 14 -35 22 -41 17 -45 25 -10 18 33 -6 32 4 -2 22 -20 11 -23 15 -10 16 23 0 22 17 -3 30 -11 6 -18 15 -15 21 6 8 -119 9 -630 2z" fill="#e34290"/>
  <path d="M44385 31305 c0 -231 1 -324 2 -207 2 117 2 306 0 420 -1 114 -2 18 -2 -213z" fill="#e34290"/>
  <path d="M27985 30600 c0 -1779 1 -2507 2 -1617 2 889 2 2345 0 3235 -1 889 -2 161 -2 -1618z" fill="#7048b4"/>
  <path d="M44372 32221 c-1 -34 -5 -42 -13 -34 -7 7 -25 9 -40 6 -18 -3 -29 -1 -29 6 0 6 -7 11 -15 11 -8 0 -15 -5 -15 -11 0 -5 -4 -8 -8 -5 -5 3 -19 -8 -31 -24 -12 -17 -28 -30 -35 -30 -17 0 -70 -79 -116 -170 -18 -36 -40 -75 -50 -87 -9 -12 -39 -75 -66 -140 -26 -65 -52 -121 -56 -124 -5 -3 -44 -104 -87 -225 -43 -120 -95 -261 -115 -312 -50 -130 -66 -198 -66 -284 0 -78 25 -463 38 -583 l8 -70 16 30 16 30 7 -47 c12 -82 -13 -208 -82 -407 -35 -102 -87 -251 -114 -331 -58 -166 -110 -369 -134 -521 -9 -57 -21 -126 -26 -153 -17 -88 -21 -308 -10 -527 17 -332 72 -666 142 -873 41 -118 132 -329 162 -375 13 -20 53 -81 89 -136 106 -164 245 -310 443 -467 155 -122 337 -235 468 -288 55 -23 114 -74 143 -126 l11 -19 429 -8 c687 -13 2942 4 2890 23 l-18 6 82 124 c107 162 159 260 517 981 313 631 360 714 523 919 285 358 760 706 1105 810 173 53 256 63 470 57 220 -7 363 -24 934 -112 489 -75 716 -102 976 -115 262 -12 428 1 525 43 19 8 54 17 78 20 l42 4 1 -21 c3 -35 17 134 39 449 20 300 41 777 38 890 l-1 60 -7 -55 c-4 -30 -7 -48 -8 -40 -1 11 -32 24 -94 42 -133 38 -124 37 -400 48 -742 28 -1090 90 -1413 250 -144 71 -270 156 -630 426 -473 355 -701 512 -865 594 -259 130 -702 237 -833 201 l-44 -13 35 -68 35 -69 5 -75 5 -76 -31 -63 c-38 -76 -110 -150 -218 -224 l-81 -55 9 -36 c6 -21 12 -66 15 -102 l5 -65 -26 -69 c-45 -119 -148 -242 -326 -392 -83 -70 -129 -105 -300 -225 -20 -15 -72 -46 -116 -69 -43 -23 -92 -50 -109 -60 -16 -10 -48 -23 -70 -30 -22 -7 -52 -21 -67 -31 -14 -11 -29 -19 -33 -19 -14 0 -205 -98 -289 -148 -144 -86 -292 -179 -416 -262 -64 -43 -165 -106 -225 -140 -61 -35 -180 -108 -265 -163 -85 -55 -184 -117 -220 -137 -36 -20 -103 -61 -150 -90 -47 -29 -116 -71 -155 -94 -38 -22 -120 -69 -182 -105 -61 -36 -162 -93 -223 -126 -151 -81 -311 -184 -390 -250 -36 -30 -94 -79 -130 -110 -115 -97 -128 -105 -181 -121 -133 -40 -282 46 -411 235 -29 42 -62 91 -74 108 -12 18 -34 68 -49 110 -15 43 -30 85 -33 93 -3 8 -6 17 -6 20 -1 3 -21 32 -46 64 l-45 59 -5 1766 c-3 971 -6 1746 -8 1722z" fill="#7048b4"/>
  <path d="M57568 32113 c28 -2 76 -2 105 0 28 2 5 3 -53 3 -58 0 -81 -1 -52 -3z" fill="#7048b4"/>
  <path d="M8694 31020 c0 -124 2 -174 3 -112 2 61 2 163 0 225 -1 61 -3 11 -3 -113z" fill="#7048b4"/>
  <path d="M59964 30770 c0 -69 1 -97 3 -62 2 34 2 90 0 125 -2 34 -3 6 -3 -63z" fill="#7048b4"/>
  <path d="M56264 29770 c0 -113 2 -159 3 -102 2 56 2 148 0 205 -1 56 -3 10 -3 -103z" fill="#7048b4"/>
  <path d="M26854 29800 c0 -58 1 -81 3 -52 2 28 2 76 0 105 -2 28 -3 5 -3 -53z" fill="#7048b4"/>
  <path d="M15165 28195 c0 -467 1 -657 2 -422 2 236 2 618 0 850 -1 232 -2 40 -2 -428z" fill="#7048b4"/>
  <path d="M36544 28875 c0 -49 1 -71 3 -48 2 23 2 64 0 90 -2 26 -3 8 -3 -42z" fill="#7048b4"/>
  <path d="M29674 28765 c0 -82 2 -115 3 -72 2 43 2 110 0 150 -1 40 -3 5 -3 -78z" fill="#7048b4"/>
  <path d="M36544 27700 c0 -80 2 -112 3 -72 2 39 2 105 0 145 -1 39 -3 7 -3 -73z" fill="#7048b4"/>
  <path d="M29674 27480 c0 -102 2 -143 3 -92 2 50 2 134 0 185 -1 50 -3 9 -3 -93z" fill="#7048b4"/>
  <path d="M36544 27435 c0 -49 1 -71 3 -48 2 23 2 64 0 90 -2 26 -3 8 -3 -42z" fill="#7048b4"/>
  <path d="M39355 26794 c-16 -8 -37 -22 -45 -31 l-15 -17 25 17 c81 55 155 36 200 -51 15 -31 5 -70 -28 -104 -32 -35 -22 -37 12 -3 55 54 37 140 -39 182 -47 27 -70 28 -110 7z" fill="#7048b4"/>
  <path d="M39299 26606 c33 -39 114 -59 150 -37 8 5 -4 7 -33 4 l-46 -6 -43 28 c-24 16 -36 21 -28 11z" fill="#7048b4"/>
  <path d="M39640 26429 c-30 -12 -70 -48 -70 -63 0 -6 7 -1 15 10 8 12 31 29 51 39 l36 17 44 -17 c59 -22 84 -56 84 -112 0 -35 -6 -49 -26 -68 -36 -34 -83 -41 -127 -20 -41 19 -64 49 -76 102 -6 25 -9 30 -10 15 -2 -35 24 -86 54 -110 79 -62 198 -17 198 75 0 97 -92 166 -173 132z" fill="#7048b4"/>
  <path d="M45246 36492 c-4 -6 3 -16 14 -22 25 -13 26 -30 3 -30 -13 -1 -10 -5 10 -16 34 -18 35 -28 2 -22 -35 7 -31 -1 10 -18 19 -8 35 -18 35 -22 0 -4 13 -16 30 -25 l30 -18 -12 -18 c-16 -26 -3 -54 21 -46 l19 6 36 -153 c20 -84 36 -159 36 -166 0 -7 4 -11 8 -8 5 3 23 -48 41 -113 18 -65 38 -128 45 -142 6 -13 32 -73 56 -134 81 -201 374 -761 519 -990 120 -190 214 -308 381 -478 237 -242 364 -347 580 -479 365 -223 814 -381 1255 -442 258 -35 358 -29 530 30 55 19 110 36 122 39 12 3 95 41 185 85 149 73 363 164 413 175 11 2 63 15 115 28 148 39 298 50 588 44 683 -13 1008 -113 1545 -475 128 -86 273 -183 322 -216 90 -60 440 -243 547 -286 32 -13 54 -28 51 -33 -4 -6 0 -8 10 -4 9 3 17 2 19 -3 3 -8 270 -85 418 -121 30 -7 62 -18 70 -24 28 -20 65 -36 94 -39 15 -2 32 -9 37 -17 5 -9 9 17 9 71 0 124 -18 600 -30 780 -33 522 -43 641 -61 790 -49 399 -122 655 -279 975 -290 591 -821 1044 -1474 1256 -377 123 -878 182 -1856 219 -151 6 -410 17 -575 25 -584 30 -966 36 -2431 42 -1049 4 -1483 2 -1488 -5z" fill="#f77f69"/>
  <path d="M41640 36325 c-269 -42 -524 -106 -715 -180 -289 -111 -584 -297 -793 -499 -454 -438 -709 -973 -792 -1656 -92 -765 -143 -2252 -120 -3480 10 -547 17 -753 26 -798 l5 -23 52 43 c29 23 56 50 61 58 5 8 23 28 40 44 17 16 30 33 29 37 -2 5 30 18 70 29 123 36 141 42 181 62 21 11 73 31 115 44 108 36 223 92 348 170 127 78 305 204 383 269 30 25 84 70 120 99 69 57 389 368 355 345 -21 -14 32 47 117 137 119 124 325 416 397 562 125 250 164 386 205 702 14 107 41 305 60 440 20 135 42 290 50 345 9 69 14 86 15 56 0 -24 3 -42 6 -39 5 5 25 187 39 353 l6 70 -16 -20 -16 -20 6 55 c3 30 8 102 12 160 l7 105 13 -35 13 -35 -6 320 c-3 176 -9 356 -13 400 l-7 80 -3 -55 c-4 -64 -16 117 -20 300 l-3 115 -11 -60 -12 -60 -7 64 c-4 35 -7 95 -7 133 0 70 -29 420 -35 426 -2 2 -7 -28 -11 -67 -3 -40 -8 -70 -9 -69 -2 2 -13 89 -25 193 -13 105 -26 194 -31 199 -4 4 -11 -13 -15 -40 l-7 -48 -9 24 c-11 28 -24 308 -14 299 3 -3 12 -23 20 -45 l15 -39 -1 95 c0 52 -4 109 -8 125 l-8 30 -2 -35 c-5 -87 -16 -87 -33 2 -22 110 -21 118 2 118 11 0 23 5 27 12 5 8 0 9 -15 5 l-22 -5 11 13 c6 8 34 29 62 46 28 18 45 35 38 37 -7 3 9 26 41 58 l53 54 -34 -1 c-19 -1 -100 -11 -180 -24z" fill="#f77f69"/>
  <path d="M44384 31945 c0 -126 2 -177 3 -112 2 65 2 168 0 230 -1 62 -3 9 -3 -118z" fill="#f77f69"/>
  <path d="M57758 32113 c23 -2 61 -2 85 0 23 2 4 4 -43 4 -47 0 -66 -2 -42 -4z" fill="#f77f69"/>
  <path d="M59964 31050 c0 -91 2 -128 3 -82 2 45 2 119 0 165 -1 45 -3 8 -3 -83z" fill="#f77f69"/>
  <path d="M44384 30620 c0 -151 2 -213 3 -137 2 75 2 199 0 275 -1 75 -3 13 -3 -138z" fill="#f77f69"/>
  <path d="M56264 30055 c0 -49 1 -71 3 -48 2 23 2 64 0 90 -2 26 -3 8 -3 -42z" fill="#f77f69"/>
  <path d="M15164 29230 c0 -107 2 -151 3 -97 2 53 2 141 0 195 -1 53 -3 9 -3 -98z" fill="#f77f69"/>
  <path d="M29674 29000 c0 -52 1 -74 3 -47 2 26 2 68 0 95 -2 26 -3 4 -3 -48z" fill="#f77f69"/>
  <path d="M50510 28835 c-126 -24 -269 -72 -385 -129 -314 -155 -670 -444 -895 -726 -163 -205 -210 -288 -523 -919 -358 -721 -410 -819 -517 -982 l-82 -124 83 -3 c45 -2 243 4 438 13 196 8 586 24 866 35 1033 40 1438 70 1710 126 796 165 1338 512 1731 1109 244 372 380 811 420 1356 l7 97 -44 -5 c-24 -3 -60 -12 -79 -20 -97 -42 -263 -55 -525 -43 -260 13 -487 40 -976 115 -229 36 -490 74 -580 86 -214 27 -544 34 -649 14z" fill="#4bbcd9"/>
 </g>
</svg>
